<?xml version="1.0" standalone="no"?>
<!DOCTYPE svg PUBLIC "-//W3C//DTD SVG 20010904//EN"
 "http://www.w3.org/TR/2001/REC-SVG-20010904/DTD/svg10.dtd">
<svg version="1.0" xmlns="http://www.w3.org/2000/svg"
 width="426.000000pt" height="426.000000pt" viewBox="0 0 426.000000 426.000000"
 preserveAspectRatio="xMidYMid meet">
<metadata>
Created by potrace 1.11, written by Peter Selinger 2001-2013
</metadata>
<g transform="translate(0.000000,426.000000) scale(0.100000,-0.100000)"
fill="#000000" stroke="none">
<path d="M822 3931 c-29 -10 -69 -33 -87 -51 -19 -18 -176 -270 -349 -559
-333 -554 -337 -563 -305 -623 16 -31 1963 -2253 1990 -2272 33 -23 80 -20
117 7 30 21 1947 2206 1981 2257 9 13 16 42 16 65 0 35 -41 108 -309 555 -170
283 -320 530 -333 548 -13 18 -48 45 -76 60 l-52 27 -1270 2 c-1212 2 -1272 2
-1323 -16z m816 -128 c-2 -10 -58 -242 -123 -515 l-119 -498 -588 0 c-323 0
-588 1 -588 3 0 1 132 223 293 492 221 369 302 496 327 513 33 22 35 22 418
22 361 0 384 -1 380 -17z m851 -20 c29 -111 231 -964 231 -977 0 -14 -59 -16
-595 -16 -327 0 -595 2 -595 5 0 3 54 231 120 507 66 277 120 506 120 511 0 4
160 7 355 7 l354 0 10 -37z m916 23 c30 -13 66 -69 325 -502 161 -269 295
-494 297 -501 4 -11 -106 -13 -582 -11 l-588 3 -78 330 c-43 182 -97 405 -119
496 -22 91 -40 173 -40 182 0 16 33 17 375 17 302 0 382 -3 410 -14z m-2021
-1163 c6 -20 374 -1198 509 -1628 47 -148 88 -279 92 -290 7 -17 4 -16 -17 5
-14 14 -389 441 -833 950 -444 509 -819 937 -833 953 l-26 27 551 0 c517 0
552 -1 557 -17z m1352 0 c-14 -47 -514 -1649 -558 -1788 -42 -132 -52 -156
-59 -135 -4 14 -137 437 -294 940 -157 503 -292 934 -300 958 l-14 42 615 0
c581 0 615 -1 610 -17z m1228 5 c-15 -24 -1686 -1929 -1690 -1926 -1 2 21 80
50 173 30 94 165 526 301 960 136 435 249 793 252 798 2 4 249 7 549 7 434 0
544 -3 538 -12z"/>
</g>
</svg>
